# xmcd
#
# Track frame offsets:
#	150
#	11967
#	22915
#	33002
#	49075
#	59550
#	71220
#	81867
#	93252
#	103960
#
# Disc length: 1567 seconds
#
# Revision: 4
# Processed by: cddbd v1.5.2PL0 Copyright (c) Steve Scherf et al.
# Submitted via: audiograbber 1.83.01
#
DISCID=81061d0a
DTITLE=Various Artist - Golden Country Jukebox Favorites
DYEAR=1992
DGENRE=Oldies
TTITLE0=Tennessee Ernie Ford - Sixteen Tons
TTITLE1=Faron Young - Hello Walls
TTITLE2=Sonny James - You're The Only World
TTITLE3=Billie Jo Spears - Blanket On The Ground
TTITLE4=Ferlin Husky - Wings Of A Dove
TTITLE5=Tennessee Ernie Ford - Shot-Gun Boogie
TTITLE6=Faron Young - If You Ain't Lovin'
TTITLE7=Sonny James - Young Love
TTITLE8=Billie Jo Spears - Your Good Girl's Gonna Go Bad
TTITLE9=Ferlin Husky - The Waltz You Saved Me From 
EXTD=
EXTT0=
EXTT1=
EXTT2=
EXTT3=
EXTT4=
EXTT5=
EXTT6=
EXTT7=
EXTT8=
EXTT9=
PLAYORDER=
